<svg width="12" height="12" viewBox="0 0 12 12" fill="none" xmlns="http://www.w3.org/2000/svg">
<path d="M2.64599 2.854C2.5995 2.80751 2.56263 2.75232 2.53747 2.69158C2.51231 2.63084 2.49936 2.56574 2.49936 2.5C2.49936 2.43425 2.51231 2.36915 2.53747 2.30841C2.56263 2.24768 2.5995 2.19249 2.64599 2.146C2.69248 2.09951 2.74767 2.06263 2.80841 2.03748C2.86915 2.01232 2.93425 1.99937 2.99999 1.99937C3.06573 1.99937 3.13083 2.01232 3.19157 2.03748C3.25231 2.06263 3.3075 2.09951 3.35399 2.146L6.85399 5.646C6.90055 5.69244 6.9375 5.74762 6.9627 5.80836C6.98791 5.86911 7.00088 5.93423 7.00088 6C7.00088 6.06577 6.98791 6.13089 6.9627 6.19163C6.9375 6.25238 6.90055 6.30755 6.85399 6.354L3.35399 9.854C3.3075 9.90049 3.25231 9.93736 3.19157 9.96252C3.13083 9.98768 3.06573 10.0006 2.99999 10.0006C2.93425 10.0006 2.86915 9.98768 2.80841 9.96252C2.74767 9.93736 2.69248 9.90049 2.64599 9.854C2.5995 9.80751 2.56263 9.75232 2.53747 9.69158C2.51231 9.63084 2.49936 9.56574 2.49936 9.5C2.49936 9.43425 2.51231 9.36915 2.53747 9.30841C2.56263 9.24768 2.5995 9.19249 2.64599 9.146L5.79299 6L2.64599 2.854ZM9.99999 2.5C9.99999 2.36739 9.94731 2.24021 9.85354 2.14645C9.75978 2.05268 9.6326 2 9.49999 2C9.36738 2 9.2402 2.05268 9.14644 2.14645C9.05267 2.24021 8.99999 2.36739 8.99999 2.5V9.5C8.99999 9.63261 9.05267 9.75978 9.14644 9.85355C9.2402 9.94732 9.36738 10 9.49999 10C9.6326 10 9.75978 9.94732 9.85354 9.85355C9.94731 9.75978 9.99999 9.63261 9.99999 9.5V2.5Z" fill="black"/>
</svg>
