<svg width="12" height="12" viewBox="0 0 12 12" fill="none" xmlns="http://www.w3.org/2000/svg">
<path d="M6.207 6L9.354 2.854C9.44789 2.76011 9.50063 2.63278 9.50063 2.5C9.50063 2.36722 9.44789 2.23989 9.354 2.146C9.26011 2.05211 9.13278 1.99937 9 1.99937C8.86722 1.99937 8.73989 2.05211 8.646 2.146L5.146 5.646C5.09944 5.69245 5.06249 5.74762 5.03729 5.80837C5.01208 5.86911 4.99911 5.93423 4.99911 6C4.99911 6.06577 5.01208 6.13089 5.03729 6.19163C5.06249 6.25238 5.09944 6.30755 5.146 6.354L8.646 9.854C8.73989 9.94789 8.86722 10.0006 9 10.0006C9.13278 10.0006 9.26011 9.94789 9.354 9.854C9.44789 9.76011 9.50063 9.63278 9.50063 9.5C9.50063 9.36722 9.44789 9.23989 9.354 9.146L6.207 6ZM3 2.5C3 2.36739 2.94732 2.24022 2.85355 2.14645C2.75979 2.05268 2.63261 2 2.5 2C2.36739 2 2.24021 2.05268 2.14645 2.14645C2.05268 2.24022 2 2.36739 2 2.5V9.5C2 9.63261 2.05268 9.75979 2.14645 9.85355C2.24021 9.94732 2.36739 10 2.5 10C2.63261 10 2.75979 9.94732 2.85355 9.85355C2.94732 9.75979 3 9.63261 3 9.5V2.5Z" fill="black"/>
</svg>
